<svg width="77" height="23" viewBox="0 0 77 23" fill="none" xmlns="http://www.w3.org/2000/svg">
<path d="M76.9824 0.923369C77.1091 0.333347 76.5307 -0.164153 75.9664 0.0511577L51.49 9.39483C51.1955 9.50731 51.0006 9.78965 51 10.105C50.9994 10.4203 51.1931 10.7034 51.4873 10.817L58.3632 13.4726V21.8369C58.3632 22.1897 58.6054 22.4963 58.9487 22.5779C59.2897 22.659 59.6453 22.4967 59.8051 22.1796L62.6489 16.5364L69.5888 21.6868C70.011 22.0001 70.6178 21.8008 70.7714 21.2974C77.251 0.0528342 76.9708 0.97674 76.9824 0.923369ZM70.9404 3.60043L59.0169 12.092L53.8866 10.1106L70.9404 3.60043ZM59.8866 13.3428L70.2798 5.94118C61.3366 15.3758 61.8037 14.8792 61.7647 14.9317C61.7067 15.0096 61.8655 14.7058 59.8866 18.6327V13.3428ZM69.6293 19.8197L63.5206 15.2862L74.566 3.63395L69.6293 19.8197Z" fill="white"/>
<path d="M7.625 8.42045H9.31818C9.26705 6.55682 7.61932 5.20455 5.25568 5.20455C2.92045 5.20455 1.13068 6.53977 1.13068 8.54545C1.13068 10.1648 2.28977 11.1136 4.15909 11.6193L5.53409 11.9943C6.77841 12.3239 7.73864 12.733 7.73864 13.767C7.73864 14.9034 6.65341 15.6534 5.15909 15.6534C3.80682 15.6534 2.68182 15.0511 2.57955 13.7841H0.818182C0.931818 15.892 2.5625 17.1932 5.17045 17.1932C7.90341 17.1932 9.47727 15.7557 9.47727 13.7841C9.47727 11.6875 7.60795 10.875 6.13068 10.5114L4.99432 10.2159C4.08523 9.98295 2.875 9.55682 2.88068 8.44318C2.88068 7.45455 3.78409 6.72159 5.21591 6.72159C6.55114 6.72159 7.5 7.34659 7.625 8.42045ZM15.2003 17.1761C17.1037 17.1761 18.4503 16.2386 18.8366 14.8182L17.2287 14.5284C16.9219 15.3523 16.1832 15.7727 15.2173 15.7727C13.7628 15.7727 12.7855 14.8295 12.7401 13.1477H18.9446V12.5455C18.9446 9.39205 17.0582 8.15909 15.081 8.15909C12.6491 8.15909 11.0469 10.0114 11.0469 12.6932C11.0469 15.4034 12.6264 17.1761 15.2003 17.1761ZM12.7457 11.875C12.8139 10.6364 13.7116 9.5625 15.0923 9.5625C16.4105 9.5625 17.2741 10.5398 17.2798 11.875H12.7457ZM22.5284 11.8182C22.5284 10.4261 23.3807 9.63068 24.5625 9.63068C25.7159 9.63068 26.4148 10.3864 26.4148 11.6534V17H28.1136V11.4489C28.1136 9.28977 26.9261 8.15909 25.142 8.15909C23.8295 8.15909 22.9716 8.76705 22.5682 9.69318H22.4602V8.27273H20.8295V17H22.5284V11.8182ZM33.6591 17.1705C35.25 17.1705 35.875 16.1989 36.1818 15.642H36.3239V17H37.983V5.36364H36.2841V9.6875H36.1818C35.875 9.14773 35.2955 8.15909 33.6705 8.15909C31.5625 8.15909 30.0114 9.82386 30.0114 12.6534C30.0114 15.4773 31.5398 17.1705 33.6591 17.1705ZM34.0341 15.7216C32.517 15.7216 31.7273 14.3864 31.7273 12.6364C31.7273 10.9034 32.5 9.60227 34.0341 9.60227C35.517 9.60227 36.3125 10.8125 36.3125 12.6364C36.3125 14.4716 35.5 15.7216 34.0341 15.7216Z" fill="white"/>
</svg>
