<svg width="19" height="27" viewBox="0 0 19 27" fill="none" xmlns="http://www.w3.org/2000/svg">
<path d="M13.3333 26.6667H5.33333V24H13.3333V26.6667ZM13.3333 22.6667H5.33333L5.036 20C4.87604 19.1179 4.61151 18.2581 4.248 17.4387C3.776 16.772 3.284 16.2027 2.808 15.6467C1.05882 14.0071 0.0462017 11.7304 0 9.33333C0 4.17868 4.17868 0 9.33333 0C14.488 0 18.6667 4.17868 18.6667 9.33333C18.6124 11.7157 17.6076 13.9775 15.876 15.6147L15.8533 15.6413C15.3787 16.1973 14.888 16.7733 14.4253 17.4333C14.0622 18.255 13.7968 19.1164 13.6347 20L13.3333 22.6667ZM9.33333 2.66667C5.65326 2.67107 2.67107 5.65326 2.66667 9.33333C2.66667 11.392 3.52533 12.3907 4.824 13.904C5.31733 14.48 5.87733 15.1307 6.424 15.892C7.08743 17.1811 7.54069 18.5679 7.76667 20H10.9013C11.1331 18.572 11.5857 17.1888 12.2427 15.9C12.776 15.1387 13.3347 14.484 13.8267 13.908L13.8467 13.884C15.1427 12.364 16 11.36 16 9.33333C15.9956 5.65326 13.0134 2.67107 9.33333 2.66667Z" fill="#FBF3A2"/>
</svg>
